<svg xmlns="http://www.w3.org/2000/svg" width="40.657" height="29.649" viewBox="0 0 40.657 29.649">
  <g id="Group_1863" data-name="Group 1863" transform="translate(-525 -254.712)">
    <path id="Path_1342" data-name="Path 1342" d="M517.584,117.175a6.887,6.887,0,0,0,2.7-2.045.2.2,0,0,0-.249-.313,19.727,19.727,0,0,1-3.067,1.463,25.528,25.528,0,0,1-5.165,1.532,24.952,24.952,0,0,1-9.225-.036,27.109,27.109,0,0,1-5.236-1.532,20.861,20.861,0,0,1-2.6-1.211c-.107-.071-.214-.107-.321-.178-.071-.036-.107-.071-.142-.071l-.019-.01a.2.2,0,0,0-.248.315,7.639,7.639,0,0,0,2.619,2.034c3.02.881,2.7,3.967.088,4.126a10.4,10.4,0,0,1-9.832-12.4,48.822,48.822,0,0,1,4.077-12.71,3.581,3.581,0,0,1,1.218-1.394,17.854,17.854,0,0,1,8.929-3.143.513.513,0,0,1,.413.185h0a.2.2,0,0,1-.1.324A27.531,27.531,0,0,0,494,95.434a.2.2,0,0,0,.193.354l.3-.132a27.908,27.908,0,0,1,8.086-2.244,3.51,3.51,0,0,1,.605-.071,30.13,30.13,0,0,1,7.2-.071,29.48,29.48,0,0,1,8.724,2.4.2.2,0,0,0,.192-.353,27.825,27.825,0,0,0-6.764-3.059.2.2,0,0,1-.094-.327h0a.937.937,0,0,1,.76-.32,17.966,17.966,0,0,1,8.724,3.134,3.577,3.577,0,0,1,1.208,1.386,48.82,48.82,0,0,1,4.075,12.687,10.382,10.382,0,0,1-9.135,12.342,1.97,1.97,0,0,1-2.2-1.791A2.217,2.217,0,0,1,517.584,117.175Z" transform="translate(38.28 163.112)" fill="#a684f5"/>
    <g id="Group_1858" data-name="Group 1858" transform="translate(548.056 267.761)">
      <circle id="Ellipse_42" data-name="Ellipse 42" cx="4.009" cy="4.009" r="4.009" transform="translate(0 0)" fill="#fdbaff"/>
      <circle id="Ellipse_43" data-name="Ellipse 43" cx="1.534" cy="1.534" r="1.534" transform="translate(1.745 2.407)" fill="#a684f5" style="mix-blend-mode: normal;isolation: isolate"/>
    </g>
    <g id="Group_1859" data-name="Group 1859" transform="translate(534.655 267.761)">
      <circle id="Ellipse_44" data-name="Ellipse 44" cx="4.009" cy="4.009" r="4.009" transform="translate(0 0)" fill="#fdbaff"/>
      <circle id="Ellipse_45" data-name="Ellipse 45" cx="1.534" cy="1.534" r="1.534" transform="translate(1.745 2.407)" fill="#a684f5" style="mix-blend-mode: normal;isolation: isolate"/>
    </g>
  </g>
</svg>
