<svg xmlns="http://www.w3.org/2000/svg" width="26.875" height="26.875" viewBox="0 0 26.875 26.875">
  <g id="Group_1875" data-name="Group 1875" transform="translate(-848.027 -428.028)">
    <path id="Path_1328" data-name="Path 1328" d="M855.968,428.028a7.947,7.947,0,0,0-7.941,7.94v10.994a7.947,7.947,0,0,0,7.941,7.94h10.994a7.947,7.947,0,0,0,7.941-7.94V435.968a7.947,7.947,0,0,0-7.941-7.94Z" fill="#a684f5"/>
    <path id="Path_1347" data-name="Path 1347" d="M1005.386,458.355a1.541,1.541,0,1,1-1.543,1.542,1.541,1.541,0,0,1,1.543-1.542Z" transform="translate(-137.2 -26.704)" fill="#fdbaff"/>
    <path id="Path_1348" data-name="Path 1348" d="M919.98,494.486a5.5,5.5,0,1,0,5.5,5.5h0A5.505,5.505,0,0,0,919.98,494.486Z" transform="translate(-58.516 -58.518)" fill="#a684f5"/>
    <path id="Path_1349" data-name="Path 1349" d="M911.175,497.87a6.692,6.692,0,1,1,0-13.385h0a6.692,6.692,0,0,1,0,13.385Zm0-11a4.3,4.3,0,1,0,4.3,4.3,4.308,4.308,0,0,0-4.3-4.3Z" transform="translate(-49.711 -49.712)" fill="#fdbaff"/>
  </g>
</svg>
