<svg id="Group_1873" data-name="Group 1873" xmlns="http://www.w3.org/2000/svg" width="33.071" height="29.249" viewBox="0 0 33.071 29.249">
  <path id="Path_1343" data-name="Path 1343" d="M120.6,70.4a14.883,14.883,0,0,1-1.876.347,7.444,7.444,0,0,0,2.187-2,.741.741,0,0,0-.878-1.12,14.768,14.768,0,0,1-2.751.826,7.376,7.376,0,0,0-5.638-2.327,7.529,7.529,0,0,0-7.135,7.415,7.4,7.4,0,0,0,.191,1.647,20.941,20.941,0,0,1-14.146-6.5,1.055,1.055,0,0,0-1.779.424,7.4,7.4,0,0,0,2.991,8.216,5.558,5.558,0,0,1-2.446-.5c-.383-.226-.856-.122-.856.473a7.091,7.091,0,0,0,5.88,6.437A7.4,7.4,0,0,1,92.4,84h0a.868.868,0,0,0-.756,1.3A7.386,7.386,0,0,0,97.9,89c-2.527,1.981-4.3,3.193-7.759,3.193h0c-1.017-.008-1.22.946-.535,1.277a17.613,17.613,0,0,0,8.681,1.906c13.582,0,21.009-11.251,21.009-21.009q0-.48-.021-.955a14.926,14.926,0,0,0,2.047-1.783A.741.741,0,0,0,120.6,70.4Z" transform="translate(-88.461 -66.123)" fill="#a684f5"/>
  <g id="Group_1869" data-name="Group 1869" transform="translate(22.083 3.202)">
    <ellipse id="Ellipse_40" data-name="Ellipse 40" cx="1.823" cy="1.823" rx="1.823" ry="1.823" transform="translate(0 0)" fill="#fdbaff"/>
    <ellipse id="Ellipse_41" data-name="Ellipse 41" cx="0.698" cy="0.698" rx="0.698" ry="0.698" transform="translate(0.794 1.095)" fill="#a684f5" style="mix-blend-mode: normal;isolation: isolate"/>
  </g>
</svg>
